<?xml version="1.0" standalone="no"?>
<!DOCTYPE svg PUBLIC "-//W3C//DTD SVG 20010904//EN"
 "http://www.w3.org/TR/2001/REC-SVG-20010904/DTD/svg10.dtd">
<svg version="1.0" xmlns="http://www.w3.org/2000/svg"
 width="730.000000pt" height="440.000000pt" viewBox="0 0 730.000000 440.000000"
 preserveAspectRatio="xMidYMid meet">

<g transform="translate(0.000000,440.000000) scale(0.100000,-0.100000)"
fill="#000000" stroke="none">
<path d="M0 2200 l0 -2200 3650 0 3650 0 0 880 c0 484 -1 880 -2 880 -2 0 -28
-9 -57 -21 -197 -75 -425 19 -521 215 -29 58 -35 82 -38 157 -4 84 -6 89 -27
89 -38 0 -108 29 -139 58 -59 56 -70 122 -32 195 14 25 21 49 18 53 -4 4 -2 4
4 1 7 -4 37 5 69 19 74 34 156 31 236 -9 l54 -28 56 25 c109 50 217 55 324 15
28 -11 51 -19 53 -19 8 0 0 318 -9 327 -8 8 -8 17 0 31 8 15 11 249 11 776 l0
756 -3650 0 -3650 0 0 -2200z m4159 1539 c36 -13 51 -35 51 -75 0 -24 -41
-266 -110 -654 -10 -58 -27 -152 -36 -209 -10 -57 -20 -99 -21 -94 -2 6 14
115 37 244 125 724 125 728 103 750 -19 19 -34 20 -464 19 -244 0 -633 -2
-864 -6 -231 -3 -630 -6 -886 -7 -439 -2 -468 -3 -487 -21 -12 -10 -23 -35
-25 -55 -4 -30 -4 -29 -3 8 1 36 6 48 28 64 27 20 43 21 725 25 578 3 1487 13
1839 20 45 1 95 -3 113 -9z m-83 -156 c-3 -16 -14 -86 -26 -158 -67 -430 -119
-747 -122 -750 -4 -4 -1660 -25 -1986 -25 l-228 0 -32 223 c-17 122 -47 331
-67 465 -19 133 -35 247 -35 252 0 6 375 11 1068 13 587 1 1149 3 1250 5 l184
2 -6 -27z m-2672 -18 c19 -19 10 -45 -14 -45 -22 0 -34 28 -19 46 14 17 14 17
33 -1z m63 -7 c-3 -8 -6 -5 -6 6 -1 11 2 17 5 13 3 -3 4 -12 1 -19z m10 -70
c-3 -7 -5 -2 -5 12 0 14 2 19 5 13 2 -7 2 -19 0 -25z m5039 -22 c-13 -21 -13
-26 -1 -36 8 -7 15 -22 15 -33 0 -18 -4 -17 -29 13 l-28 35 25 34 c28 36 44
25 18 -13z m74 30 c0 -8 -7 -22 -16 -30 -14 -14 -14 -18 0 -38 28 -40 17 -54
-13 -18 l-28 35 24 32 c28 37 33 39 33 19z m45 -22 c-16 -25 -16 -29 -1 -56
22 -36 12 -36 -18 -1 l-24 27 26 33 c31 38 43 36 17 -3z m-5148 -46 c-3 -7 -5
-2 -5 12 0 14 2 19 5 13 2 -7 2 -19 0 -25z m5264 -15 c13 -16 12 -17 -3 -4
-10 7 -18 15 -18 17 0 8 8 3 21 -13z m-5254 -50 c-3 -10 -5 -4 -5 12 0 17 2
24 5 18 2 -7 2 -21 0 -30z m-1077 -28 c0 -18 -5 -25 -20 -25 -15 0 -20 7 -20
25 0 18 5 25 20 25 15 0 20 -7 20 -25z m1087 -27 c-3 -8 -6 -5 -6 6 -1 11 2
17 5 13 3 -3 4 -12 1 -19z m3653 -18 c0 -5 -4 -10 -10 -10 -5 0 -10 5 -10 10
0 6 5 10 10 10 6 0 10 -4 10 -10z m-4610 -35 c0 -20 -5 -25 -25 -25 -20 0 -25
5 -25 25 0 20 5 25 25 25 20 0 25 -5 25 -25z m967 -17 c-3 -7 -5 -2 -5 12 0
14 2 19 5 13 2 -7 2 -19 0 -25z m4943 -22 c0 -3 -4 -8 -10 -11 -5 -3 -10 -1
-10 4 0 6 5 11 10 11 6 0 10 -2 10 -4z m-6305 -36 c0 -16 -6 -26 -18 -28 -19
-4 -32 20 -23 44 9 25 41 13 41 -16z m1372 -2 c-3 -7 -5 -2 -5 12 0 14 2 19 5
13 2 -7 2 -19 0 -25z m10 -70 c-3 -7 -5 -2 -5 12 0 14 2 19 5 13 2 -7 2 -19 0
-25z m3933 22 c0 -5 -2 -10 -4 -10 -3 0 -8 5 -11 10 -3 6 -1 10 4 10 6 0 11
-4 11 -10z m-4903 -47 c10 -8 11 -11 3 -7 -25 12 -50 36 -50 48 0 6 7 3 15 -7
7 -10 22 -25 32 -34z m4873 43 c0 -3 -4 -8 -10 -11 -5 -3 -10 -1 -10 4 0 6 5
11 10 11 6 0 10 -2 10 -4z m1230 -36 c0 -5 -4 -10 -10 -10 -5 0 -10 5 -10 10
0 6 5 10 10 10 6 0 10 -4 10 -10z m-5123 -47 c-3 -10 -5 -4 -5 12 0 17 2 24 5
18 2 -7 2 -21 0 -30z m-1136 -30 c13 -16 12 -17 -3 -4 -10 7 -18 15 -18 17 0
8 8 3 21 -13z m5789 7 c0 -5 -4 -10 -10 -10 -5 0 -10 5 -10 10 0 6 5 10 10 10
6 0 10 -4 10 -10z m-4643 -32 c-3 -7 -5 -2 -5 12 0 14 2 19 5 13 2 -7 2 -19 0
-25z m10 -60 c-3 -7 -5 -2 -5 12 0 14 2 19 5 13 2 -7 2 -19 0 -25z m5693 -49
l-22 -30 22 -24 c12 -13 20 -32 18 -45 -3 -18 -8 -15 -39 26 l-37 48 37 48
c30 41 37 46 39 29 2 -12 -6 -35 -18 -52z m-6447 38 c3 -8 1 -20 -4 -28 -6
-10 -9 -7 -9 14 0 29 5 35 13 14z m764 -59 c-3 -7 -5 -2 -5 12 0 14 2 19 5 13
2 -7 2 -19 0 -25z m-638 -51 c-2 -3 -15 10 -28 27 l-24 31 28 -27 c16 -15 27
-29 24 -31z m3491 49 c0 -3 -4 -8 -10 -11 -5 -3 -10 -1 -10 4 0 6 5 11 10 11
6 0 10 -2 10 -4z m-3900 -86 c7 0 11 -3 7 -6 -12 -12 -47 8 -68 39 l-22 32 34
-32 c19 -18 41 -33 49 -33z m1057 23 c-3 -10 -5 -4 -5 12 0 17 2 24 5 18 2 -7
2 -21 0 -30z m4343 33 c0 -3 -4 -8 -10 -11 -5 -3 -10 -1 -10 4 0 6 5 11 10 11
6 0 10 -2 10 -4z m557 -2 c-3 -3 -12 -4 -19 -1 -8 3 -5 6 6 6 11 1 17 -2 13
-5z m113 2 c0 -3 -4 -8 -10 -11 -5 -3 -10 -1 -10 4 0 6 5 11 10 11 6 0 10 -2
10 -4z m30 -6 c0 -5 -2 -10 -4 -10 -3 0 -8 5 -11 10 -3 6 -1 10 4 10 6 0 11
-4 11 -10z m-5033 -82 c-3 -7 -5 -2 -5 12 0 14 2 19 5 13 2 -7 2 -19 0 -25z
m-956 -43 c49 -22 45 -32 -5 -11 -39 16 -47 12 -18 -11 15 -12 14 -12 -10 -2
-16 7 -24 17 -20 23 3 6 6 21 5 34 0 16 0 17 4 3 2 -10 22 -26 44 -36z m289
-19 c0 -26 -6 -18 -14 19 -5 22 -4 26 4 15 5 -8 10 -24 10 -34z m677 -8 c-3
-7 -5 -2 -5 12 0 14 2 19 5 13 2 -7 2 -19 0 -25z m-1087 -9 c0 -5 -5 -9 -12
-9 -6 0 -8 3 -5 7 4 3 1 13 -6 22 -11 14 -10 14 6 2 9 -7 17 -17 17 -22z
m3517 -6 c-3 -10 -5 -4 -5 12 0 17 2 24 5 18 2 -7 2 -21 0 -30z m-3712 7 c-3
-5 -10 -10 -16 -10 -5 0 -9 5 -9 10 0 6 7 10 16 10 8 0 12 -4 9 -10z m595 -15
c0 -2 -10 -9 -22 -15 -22 -11 -22 -10 -4 4 21 17 26 19 26 11z m697 -27 c-3
-8 -6 -5 -6 6 -1 11 2 17 5 13 3 -3 4 -12 1 -19z m2565 -8 c5 -34 1 -36 -27
-14 -20 15 -20 15 -1 30 25 18 23 19 28 -16z m74 1 c2 -29 1 -30 -22 -14 -23
15 -23 16 -7 29 25 19 28 18 29 -15z m74 13 c0 -8 -4 -12 -10 -9 -5 3 -10 1
-10 -4 0 -6 5 -11 10 -11 6 0 10 -5 10 -12 0 -6 -9 -3 -20 7 -19 17 -19 19 -2
31 22 17 22 17 22 -2z m-321 -58 l-22 -21 17 25 c9 13 17 34 17 45 1 16 3 16
6 -4 3 -16 -3 -31 -18 -45z m2113 -83 l78 -78 0 -67 c0 -77 -17 -93 -22 -20
l-3 47 -50 2 c-27 1 -65 2 -82 2 l-33 1 0 85 0 85 -227 -2 -228 -3 -3 -114
c-2 -83 1 -117 10 -122 10 -6 10 -13 0 -31 -9 -17 -12 -94 -10 -293 l3 -270
310 0 310 0 3 63 c4 88 22 78 22 -13 l0 -75 -335 0 -334 0 -3 303 c-2 166 -2
364 0 440 l3 137 257 0 257 0 77 -77z m-2148 51 c9 -4 21 -15 27 -27 17 -31
28 -433 29 -1034 1 -577 1 -570 -48 -593 -16 -7 -182 -13 -477 -17 -411 -6
-454 -5 -476 10 -33 24 -360 25 -379 2 -10 -12 -38 -15 -134 -14 -79 0 -113 3
-100 9 12 5 25 13 29 19 4 7 78 11 213 12 114 1 245 4 292 8 61 6 5 8 -198 9
l-282 2 58 73 c32 40 64 89 71 108 24 64 86 204 91 209 4 3 12 20 19 38 8 18
27 51 43 73 24 33 27 43 17 55 -28 34 -48 36 -102 10 -29 -14 -73 -34 -100
-45 -28 -12 -51 -29 -57 -43 -7 -18 -8 -14 -4 17 4 30 2 44 -10 54 -13 11 -16
11 -16 -2 0 -9 5 -19 10 -22 6 -3 10 -12 10 -18 0 -7 -4 -6 -11 3 -9 12 -10
12 -5 -3 3 -10 -1 -25 -9 -33 -8 -9 -15 -21 -14 -27 0 -9 2 -8 6 1 2 6 9 12
14 12 6 0 7 -5 4 -10 -4 -6 -4 -18 0 -28 5 -14 7 -14 16 -2 8 11 9 7 4 -15
-11 -48 -11 -50 3 -47 17 3 15 -17 -3 -24 -8 -4 -15 -10 -15 -16 0 -5 5 -6 10
-3 6 4 10 -6 10 -23 0 -17 -6 -32 -15 -36 -10 -3 -15 1 -15 13 0 10 -7 24 -16
32 -9 8 -13 21 -10 35 7 28 -21 41 -39 17 -11 -15 -14 -14 -28 8 -34 53 -55
102 -51 114 3 7 0 16 -5 20 -6 3 -9 11 -6 16 4 5 1 9 -5 9 -6 0 -8 -11 -5 -27
6 -26 5 -26 -11 5 -9 17 -21 32 -26 32 -5 0 -6 9 -3 20 3 11 2 20 -3 20 -5 0
-12 -9 -15 -20 -8 -33 -27 -23 -27 15 0 19 5 35 11 35 5 0 8 4 5 9 -7 10 13
168 25 196 4 11 13 37 21 58 10 30 14 34 19 20 6 -14 8 -15 8 -2 1 8 -8 33
-18 55 -23 48 -20 130 6 149 14 11 15 16 5 28 -9 10 -9 16 -2 19 6 2 12 10 13
18 2 8 6 21 11 28 5 8 3 18 -4 25 -10 9 -11 9 -6 0 4 -7 -3 -17 -15 -24 -18
-9 -21 -9 -16 4 3 8 0 20 -6 27 -9 10 -9 11 2 5 11 -6 13 -4 8 8 -9 23 9 21
33 -3 13 -13 20 -33 20 -60 0 -38 2 -40 30 -40 l30 0 0 65 0 65 -52 1 c-29 0
-47 3 -40 6 8 3 12 27 12 68 0 50 -4 66 -17 74 -16 9 -14 10 7 9 72 -4 90 1
90 26 0 33 -15 40 -85 41 l-61 1 4 -31 c3 -16 10 -33 16 -37 6 -4 -2 -7 -19
-7 -16 0 -24 3 -17 6 13 5 16 42 4 58 -4 6 -41 11 -82 12 -41 1 -69 -1 -64 -5
17 -10 23 -72 8 -72 -7 0 -10 8 -7 21 3 11 0 31 -7 45 -11 20 -21 24 -56 24
-24 0 -46 -5 -49 -10 -4 -6 -13 -7 -23 -2 -9 5 -63 7 -120 4 -98 -4 -102 -5
-108 -28 -12 -47 -1 -54 87 -54 45 0 79 -3 75 -7 -3 -4 -39 -7 -79 -7 -39 -1
-73 -4 -74 -8 -2 -5 -3 -33 -3 -63 l0 -55 65 0 c50 0 66 4 74 18 10 16 10 16
11 0 0 -15 15 -17 140 -17 125 0 140 2 140 17 1 16 1 16 11 0 7 -13 23 -18 55
-18 38 0 43 -2 32 -14 -7 -8 -14 -10 -16 -5 -2 5 -35 9 -73 9 l-69 0 -2 -42
-1 -43 -4 43 -4 43 -67 -3 -67 -3 0 -65 0 -65 50 -6 c36 -4 41 -6 18 -7 l-33
-2 0 -70 c0 -38 -3 -70 -7 -70 -5 0 -7 31 -5 69 4 82 13 77 -139 73 l-108 -3
0 -140 0 -139 37 -2 37 -1 -38 -4 -38 -4 3 -67 3 -67 50 -5 50 -5 3 -90 c2
-57 -6 -158 -22 -278 -14 -103 -26 -208 -26 -233 0 -25 -7 -58 -15 -73 -8 -16
-12 -31 -8 -34 9 -9 -41 -19 -78 -15 -20 2 -33 8 -32 15 2 7 -4 10 -12 7 -27
-11 -33 60 -36 461 -4 392 -3 540 3 937 4 249 -1 241 153 246 69 3 105 0 105
-7 0 -6 26 -9 70 -8 39 1 70 -1 70 -5 0 -9 1574 3 1580 13 9 13 335 24 364 13z
m-3501 -31 c-7 -2 -19 -2 -25 0 -7 3 -2 5 12 5 14 0 19 -2 13 -5z m4562 -74
c42 -16 78 -42 121 -84 54 -53 65 -70 86 -135 16 -53 23 -99 23 -156 0 -75 -4
-88 -39 -158 -46 -89 -111 -155 -194 -194 -53 -25 -57 -29 -47 -49 8 -14 16
-19 24 -13 8 4 10 13 7 19 -9 14 0 14 24 1 21 -11 82 -117 100 -175 7 -22 23
-61 37 -88 13 -26 26 -59 28 -75 3 -15 7 -41 11 -58 4 -23 -2 -47 -25 -92 -50
-99 -112 -261 -138 -357 -18 -71 -25 -128 -30 -268 -6 -174 -7 -178 -27 -173
-12 3 -57 12 -101 21 -79 17 -123 33 -55 21 39 -6 74 7 45 18 -10 3 -13 11 -9
18 10 16 5 69 -8 85 -5 7 -7 16 -5 20 3 5 -5 53 -18 108 -12 55 -26 119 -29
143 -6 39 -4 43 21 55 21 9 27 9 31 -1 6 -18 18 -15 19 6 1 11 -13 24 -38 36
-35 17 -39 23 -39 58 0 22 5 48 11 59 9 17 7 20 -8 17 -13 -2 -18 3 -18 21 0
13 6 26 13 29 6 2 12 -1 12 -7 0 -6 -4 -11 -10 -11 -5 0 -10 -8 -10 -17 0 -15
2 -14 19 3 11 12 17 32 16 47 -2 15 0 27 4 27 5 0 15 18 24 40 8 22 11 37 5
34 -6 -4 -8 2 -3 16 4 12 8 28 9 34 2 6 8 30 15 54 7 24 11 51 9 61 -2 10 3
25 11 34 7 10 10 17 5 17 -5 0 -4 4 3 8 8 5 4 19 -15 47 -31 45 -39 86 -22
112 9 14 10 9 8 -29 -3 -38 0 -45 12 -38 8 4 20 9 27 11 9 3 7 16 -7 47 -10
23 -15 42 -10 42 6 0 10 4 10 9 0 6 -12 6 -30 1 -43 -12 -37 -2 12 20 l42 19
-56 0 c-84 0 -126 10 -201 49 -117 61 -169 148 -192 323 -15 110 -15 110 10
172 47 117 161 212 283 238 65 14 182 3 247 -22z m-4448 -11 c-3 -8 -6 -5 -6
6 -1 11 2 17 5 13 3 -3 4 -12 1 -19z m5353 12 c0 -6 -62 -10 -165 -10 -103 0
-165 4 -165 10 0 6 62 10 165 10 103 0 165 -4 165 -10z m-462 -36 c1 -1 -9 -9
-23 -18 l-25 -16 0 36 0 37 23 -19 c12 -10 23 -19 25 -20z m-228 2 c0 -2 -8
-11 -19 -20 -18 -16 -19 -16 -17 13 1 25 3 28 18 20 10 -5 18 -11 18 -13z m63
10 c16 -13 16 -14 -6 -29 -23 -15 -24 -14 -24 14 0 32 4 34 30 15z m85 -12 c1
0 -7 -9 -18 -19 -20 -18 -20 -17 -20 15 0 29 2 31 18 19 9 -7 18 -14 20 -15z
m-4638 -14 c0 -5 -4 -10 -10 -10 -5 0 -10 5 -10 10 0 6 5 10 10 10 6 0 10 -4
10 -10z m1212 -25 c2 -21 0 -35 -7 -35 -7 0 -9 14 -7 35 2 19 5 35 7 35 2 0 5
-16 7 -35z m3951 9 c43 -16 -7 -24 -154 -24 -142 0 -172 4 -154 22 8 8 288 10
308 2z m-3871 -56 c-9 -9 -15 -9 -24 0 -9 9 -7 12 12 12 19 0 21 -3 12 -12z
m152 5 c-5 -5 -12 -12 -15 -16 -3 -5 -9 -2 -12 7 -5 12 0 16 15 16 12 0 17 -3
12 -7z m2050 -22 c3 -5 0 -13 -7 -19 -15 -13 -42 1 -33 17 9 13 33 15 40 2z
m-2354 -48 c0 -39 -15 -25 -17 14 -2 27 1 33 7 23 5 -8 10 -25 10 -37z m137 0
c-3 -10 -5 -2 -5 17 0 19 2 27 5 18 2 -10 2 -26 0 -35z m4076 32 c2 -10 -465
-20 -491 -10 -7 3 -10 9 -7 15 9 14 494 9 498 -5z m-3926 -32 c-3 -10 -5 -4
-5 12 0 17 2 24 5 18 2 -7 2 -21 0 -30z m3863 -38 c0 -13 -31 -15 -220 -15
-201 0 -233 4 -213 23 3 4 102 7 220 7 183 0 213 -2 213 -15z m238 -6 c63 -31
95 -84 95 -158 0 -60 -26 -120 -60 -140 -13 -7 -7 -23 40 -107 32 -57 51 -101
45 -103 -14 -5 -29 15 -79 106 l-40 73 -59 -7 c-116 -12 -200 62 -200 178 0
137 132 218 258 158z m-288 -64 c0 -13 -26 -15 -195 -15 -175 0 -208 4 -190
22 4 3 91 6 195 7 165 1 190 0 190 -14z m-3817 -47 c14 -12 14 -15 -9 -31 -13
-10 -24 -14 -25 -10 0 4 -2 18 -3 31 -3 25 12 28 37 10z m3800 -18 c4 0 7 -4
7 -10 0 -6 -70 -10 -190 -10 -114 0 -190 4 -190 10 0 13 186 18 373 10z
m-5743 -20 c0 -5 -2 -10 -4 -10 -3 0 -8 5 -11 10 -3 6 -1 10 4 10 6 0 11 -4
11 -10z m970 6 c0 -3 -4 -8 -10 -11 -5 -3 -10 -1 -10 4 0 6 5 11 10 11 6 0 10
-2 10 -4z m979 -38 c-7 -13 -12 -33 -10 -45 1 -13 -2 -23 -7 -23 -6 0 -8 -80
-7 -200 2 -115 -1 -202 -6 -206 -26 -16 -46 48 -55 178 -2 35 0 46 10 42 9 -3
11 4 8 26 -2 16 -8 33 -13 36 -12 7 -12 71 0 78 10 6 24 63 22 86 -1 8 8 22
20 30 12 8 27 20 33 27 16 16 19 -2 5 -29z m3791 -28 c0 -6 -68 -10 -185 -10
-117 0 -185 4 -185 10 0 6 68 10 185 10 117 0 185 -4 185 -10z m30 -70 c0 -6
-73 -10 -200 -10 -127 0 -200 4 -200 10 0 6 73 10 200 10 127 0 200 -4 200
-10z m-4810 -29 c0 -24 -4 -28 -25 -28 -21 0 -25 4 -25 28 0 24 4 29 25 29 21
0 25 -5 25 -29z m70 -6 c0 -19 -4 -35 -9 -35 -7 0 -8 53 -2 68 5 12 11 -5 11
-33z m690 6 c14 -26 11 -69 -6 -111 -8 -19 -13 -26 -10 -14 2 12 -1 29 -6 38
-7 13 -5 23 7 36 12 13 15 25 9 37 -7 16 -8 16 -11 -4 -3 -15 -9 -20 -19 -16
-12 4 -13 8 -4 13 7 4 9 13 6 19 -4 6 -12 8 -18 5 -7 -4 -8 -2 -4 4 11 19 44
14 56 -7z m3443 -45 c3 -7 1 -18 -5 -24 -15 -15 -49 4 -42 23 8 19 40 20 47 1z
m715 2 c-4 -10 -63 -14 -244 -16 -241 -2 -270 0 -259 18 10 16 508 14 503 -2z
m-5 -73 c2 -10 -465 -20 -491 -10 -7 3 -10 9 -7 15 9 14 494 9 498 -5z m-4851
-270 l-9 -160 -1 130 c-2 146 11 344 16 245 1 -30 -2 -127 -6 -215z m321 193
c-24 -27 -33 -22 -33 17 l0 36 24 -18 c22 -17 23 -19 9 -35z m-286 -10 c-2
-13 -4 -5 -4 17 -1 22 1 32 4 23 2 -10 2 -28 0 -40z m223 24 c0 -4 -9 -13 -20
-20 -18 -11 -20 -10 -20 18 0 28 2 30 20 20 11 -6 20 -14 20 -18z m430 8 c0
-11 -4 -20 -9 -20 -5 0 -7 9 -4 20 3 11 7 20 9 20 2 0 4 -9 4 -20z m2773 -65
c8 0 10 -11 5 -24 -2 -5 -12 2 -22 17 -11 15 -13 22 -5 16 8 -5 17 -9 22 -9z
m23 -81 c-9 -8 -24 -14 -34 -11 -14 3 -13 6 8 15 36 15 44 14 26 -4z m-61 -4
c-3 -5 -12 -10 -18 -10 -7 0 -6 4 3 10 19 12 23 12 15 0z m1793 -13 c2 -12 -3
-17 -17 -17 -12 0 -21 6 -21 13 0 31 32 34 38 4z m-4478 -8 c0 -6 -4 -7 -10
-4 -5 3 -10 11 -10 16 0 6 5 7 10 4 6 -3 10 -11 10 -16z m2696 -49 c18 0 18
-24 0 -40 -8 -6 -12 -18 -9 -26 6 -17 -9 -18 -25 -2 -10 10 -14 8 -18 -10 -4
-12 -10 -19 -15 -16 -5 3 -9 0 -9 -5 0 -6 -7 -11 -15 -11 -14 0 -13 3 1 25 9
14 14 34 11 46 -4 15 -2 19 8 15 10 -3 12 0 8 11 -4 11 -2 14 5 9 7 -4 12 -2
12 4 0 7 7 9 16 6 9 -3 22 -6 30 -6z m2204 -40 c0 -5 -5 -10 -11 -10 -5 0 -7
5 -4 10 3 6 8 10 11 10 2 0 4 -4 4 -10z m-2315 -43 c-4 -8 -16 -17 -27 -20
-19 -5 -19 -5 3 19 24 26 33 26 24 1z m-1913 -27 c-2 -7 3 -17 10 -21 9 -6 9
-9 1 -9 -14 0 -43 28 -43 41 0 6 8 9 18 7 9 -2 16 -10 14 -18z m3458 5 c0 -8
-5 -15 -11 -15 -5 0 -8 4 -5 9 4 5 0 12 -6 14 -8 3 -6 6 5 6 9 1 17 -6 17 -14z
m-3480 -40 c11 -13 10 -14 -4 -9 -9 3 -16 10 -16 15 0 13 6 11 20 -6z m2023 0
c4 -8 2 -17 -4 -20 -5 -4 -7 -10 -5 -14 3 -4 0 -13 -6 -21 -8 -12 -9 -11 -4 5
5 17 4 18 -6 5 -7 -8 -21 -16 -30 -16 -14 -1 -12 5 9 37 28 42 38 47 46 24z
m-73 -35 c-8 -5 -19 -10 -25 -10 -5 0 -3 5 5 10 8 5 20 10 25 10 6 0 3 -5 -5
-10z m-430 -87 c0 -23 -4 -28 -25 -28 -21 0 -25 5 -25 28 0 22 4 27 25 27 21
0 25 -5 25 -27z m-1770 -4 c0 -11 -4 -17 -10 -14 -5 3 -10 13 -10 21 0 8 5 14
10 14 6 0 10 -9 10 -21z m3060 -15 c0 -29 -24 -41 -45 -24 -19 16 -19 25 0 44
21 20 45 9 45 -20z m-3135 -14 c3 -6 -1 -7 -9 -4 -18 7 -21 14 -7 14 6 0 13
-4 16 -10z m212 -42 c-3 -8 -6 -5 -6 6 -1 11 2 17 5 13 3 -3 4 -12 1 -19z
m1773 -19 c0 -26 -3 -30 -22 -27 -17 2 -24 11 -26 31 -3 23 0 27 22 27 22 0
26 -4 26 -31z m-1990 -19 c0 -5 -5 -10 -11 -10 -5 0 -7 5 -4 10 3 6 8 10 11
10 2 0 4 -4 4 -10z m-29 -17 c16 -10 29 -23 29 -30 0 -7 5 -13 11 -13 6 0 9 7
5 15 -3 8 -1 15 3 15 9 0 21 -24 21 -41 0 -5 -9 -9 -19 -9 -10 0 -21 -6 -24
-14 -7 -18 3 -59 17 -69 8 -6 8 -8 0 -5 -17 5 -94 76 -94 87 0 5 6 12 13 14 8
4 9 8 1 14 -12 10 -13 53 -1 53 5 0 22 -8 38 -17z m1794 -33 c3 -5 1 -10 -4
-10 -6 0 -11 5 -11 10 0 6 2 10 4 10 3 0 8 -4 11 -10z m2485 -102 c0 -25 -4
-29 -22 -26 -23 3 -34 28 -24 53 3 8 13 11 25 8 15 -4 21 -13 21 -35z m650
-18 l0 -60 -50 0 -50 0 0 60 0 60 50 0 50 0 0 -60z m-4922 -14 c27 -24 28 -36
2 -36 -11 0 -20 -4 -20 -10 0 -12 -20 -13 -38 -2 -17 12 -4 45 16 37 12 -4 12
-1 -2 19 -30 46 -17 44 42 -8z m4132 -46 c0 -25 -4 -30 -25 -30 -20 0 -25 5
-25 23 0 28 7 37 32 37 13 0 18 -8 18 -30z m-4075 -90 c-19 -28 -42 -68 -51
-86 -9 -19 -19 -32 -22 -30 -3 3 1 12 8 21 7 8 9 15 5 15 -5 0 -1 8 7 18 9 9
23 32 32 50 16 31 48 71 54 67 1 -1 -13 -26 -33 -55z m-115 40 c0 -5 -4 -10
-10 -10 -5 0 -10 5 -10 10 0 6 5 10 10 10 6 0 10 -4 10 -10z m4634 -25 c14
-39 -25 -66 -48 -33 -11 16 -13 25 -4 35 14 18 45 17 52 -2z m-4650 -30 c-4
-8 -10 -15 -15 -15 -13 0 -11 18 4 23 7 3 5 6 -5 6 -10 1 -18 6 -18 11 0 7 6
7 20 0 11 -6 17 -16 14 -25z m4972 2 c2 -7 -2 -27 -11 -43 -12 -24 -15 -25
-15 -8 0 11 -5 25 -11 31 -6 6 -8 16 -5 22 10 15 36 14 42 -2z m-797 -93 l-22
-24 21 -23 c12 -13 22 -32 22 -43 -1 -15 -8 -11 -35 20 -19 22 -35 43 -35 47
0 5 15 25 33 45 26 30 33 34 35 20 2 -10 -6 -29 -19 -42z m81 6 c-6 -12 -16
-18 -22 -14 -7 4 -2 -8 10 -28 33 -54 28 -76 -8 -35 -37 42 -37 51 -2 91 28
33 42 24 22 -14z m157 18 c-3 -8 -6 -5 -6 6 -1 11 2 17 5 13 3 -3 4 -12 1 -19z
m-39 -38 c-7 -10 -14 -17 -17 -15 -4 4 18 35 25 35 2 0 -1 -9 -8 -20z m26 -28
c3 -5 -1 -9 -9 -9 -8 0 -12 4 -9 9 3 4 7 8 9 8 2 0 6 -4 9 -8z m-4373 -59
c-12 -20 -14 -14 -5 12 4 9 9 14 11 11 3 -2 0 -13 -6 -23z m-20 -50 c-12 -20
-14 -14 -5 12 4 9 9 14 11 11 3 -2 0 -13 -6 -23z m-104 11 c-3 -3 -12 -4 -19
-1 -8 3 -5 6 6 6 11 1 17 -2 13 -5z m2602 -39 l0 -20 -9 20 c-5 11 -9 27 -9
35 -1 13 0 13 9 0 5 -8 9 -24 9 -35z m-2556 28 c-7 -2 -19 -2 -25 0 -7 3 -2 5
12 5 14 0 19 -2 13 -5z m4557 -58 l0 -35 -26 17 -26 17 24 18 c12 9 24 18 26
18 1 0 2 -16 2 -35z m90 0 l0 -35 -26 17 -26 17 24 18 c12 9 24 18 26 18 1 0
2 -16 2 -35z m90 -5 c0 -30 0 -30 -25 -14 -24 15 -24 17 -8 30 27 20 33 17 33
-16z m-2180 -40 c0 -5 -4 -10 -10 -10 -5 0 -10 5 -10 10 0 6 5 10 10 10 6 0
10 -4 10 -10z m2464 -50 c-6 -6 -18 -8 -27 -4 -13 5 -14 10 -6 26 10 19 12 19
27 4 11 -11 13 -19 6 -26z m-626 11 c10 -6 10 -10 -3 -21 -18 -15 -42 0 -31
19 8 13 16 14 34 2z"/>
<path d="M3047 3233 c-4 -3 -7 -57 -7 -120 l0 -113 -582 -3 -583 -2 582 -3
582 -2 3 -22 3 -23 383 -3 382 -2 0 25 0 25 -382 3 -383 2 383 3 382 2 0 120
0 120 -378 0 c-208 0 -382 -3 -385 -7z m253 -40 c0 -18 -36 -43 -62 -43 -28 0
-28 0 -28 -65 l0 -65 -30 0 -30 0 0 65 0 65 -45 0 -45 0 16 25 c16 24 20 25
120 25 57 0 104 -3 104 -7z m230 0 c0 -3 -7 -15 -17 -25 -11 -13 -32 -19 -72
-20 -54 -2 -54 -2 17 -7 l73 -6 -16 -22 c-13 -19 -25 -23 -71 -23 -30 0 -54
-4 -54 -10 0 -6 32 -10 75 -10 l76 0 -18 -25 c-17 -23 -24 -24 -110 -25 l-93
0 0 90 0 90 105 0 c58 0 105 -3 105 -7z m244 -18 c-15 -22 -23 -25 -80 -25
-52 0 -65 -3 -74 -19 -13 -25 -13 -27 6 -45 11 -12 36 -16 91 -16 l75 0 -15
-22 c-13 -21 -23 -23 -97 -23 -77 0 -83 2 -106 28 -26 31 -31 66 -12 100 21
40 40 46 136 47 l92 0 -16 -25z"/>
<path d="M1880 3115 l0 -95 30 0 30 0 0 95 0 95 -30 0 -30 0 0 -95z"/>
<path d="M1970 3180 l-21 -30 45 0 46 0 0 -65 0 -65 30 0 30 0 0 65 0 65 34 0
c25 0 38 6 50 25 9 13 16 27 16 30 0 3 -47 5 -104 5 l-105 0 -21 -30z"/>
<path d="M2210 3115 l0 -95 35 0 c33 0 35 2 35 35 l0 35 50 0 50 0 0 -35 c0
-33 2 -35 34 -35 l34 0 -1 93 -2 92 -32 3 c-32 3 -33 2 -33 -32 l0 -36 -50 0
-50 0 0 35 c0 33 -2 35 -35 35 l-35 0 0 -95z"/>
<path d="M2490 3180 l-21 -30 95 0 c79 0 96 -3 96 -15 0 -12 -17 -15 -95 -15
l-95 0 0 -50 0 -50 35 0 c30 0 35 3 35 24 0 23 3 25 42 20 26 -3 47 -13 56
-25 9 -13 25 -19 53 -19 44 0 48 8 20 35 -20 17 -20 17 1 46 18 23 20 34 12
56 -13 39 -48 53 -136 53 -74 0 -77 -1 -98 -30z"/>
<path d="M2740 3205 c0 -2 25 -32 55 -66 40 -44 55 -70 55 -90 0 -26 3 -29 35
-29 33 0 35 2 35 32 0 23 13 46 50 89 28 32 50 60 50 63 0 3 -15 6 -34 6 -27
0 -41 -8 -69 -40 l-36 -39 -31 39 c-27 34 -37 40 -71 40 -21 0 -39 -2 -39 -5z"/>
<path d="M1880 2966 c0 -10 9 -16 21 -16 24 0 21 23 -4 28 -10 2 -17 -3 -17
-12z"/>
<path d="M1942 2968 c5 -15 37 -18 41 -3 1 6 -9 12 -22 13 -16 3 -22 -1 -19
-10z"/>
<path d="M2010 2967 c0 -10 8 -17 18 -17 9 0 13 4 7 8 -5 4 -13 11 -17 16 -5
5 -8 2 -8 -7z"/>
<path d="M2071 2968 c-1 -10 6 -18 14 -18 8 0 15 8 15 18 0 13 -2 14 -9 3 -7
-11 -9 -11 -14 0 -4 10 -6 9 -6 -3z"/>
<path d="M2136 2968 c3 -5 10 -6 15 -3 13 9 11 12 -6 12 -8 0 -12 -4 -9 -9z"/>
<path d="M2245 2971 l20 -8 -20 -5 c-18 -5 -18 -6 3 -7 13 -1 22 5 22 14 0 9
-9 15 -22 14 -22 0 -22 -1 -3 -8z"/>
<path d="M2290 2965 c0 -8 9 -13 20 -12 11 1 20 6 20 12 0 6 -9 11 -20 12 -11
1 -20 -4 -20 -12z"/>
<path d="M2360 2965 c0 -8 7 -15 15 -15 8 0 15 7 15 15 0 8 -7 15 -15 15 -8 0
-15 -7 -15 -15z"/>
<path d="M2462 2969 c2 -7 10 -15 17 -17 8 -3 12 1 9 9 -2 7 -10 15 -17 17 -8
3 -12 -1 -9 -9z"/>
<path d="M2563 2965 c0 -8 9 -15 20 -15 10 0 17 5 15 13 -7 18 -35 20 -35 2z"/>
<path d="M2626 2965 c4 -8 12 -15 20 -15 8 0 11 6 8 15 -4 8 -12 15 -20 15 -8
0 -11 -6 -8 -15z"/>
<path d="M2680 2967 c0 -7 9 -13 20 -14 11 -1 20 4 20 10 0 7 -9 13 -20 14
-11 1 -20 -4 -20 -10z"/>
<path d="M2770 2970 c-8 -5 -12 -12 -9 -15 4 -3 12 1 19 10 14 17 11 19 -10 5z"/>
<path d="M2821 2964 c0 -11 3 -14 6 -6 3 7 2 16 -1 19 -3 4 -6 -2 -5 -13z"/>
<path d="M2852 2968 c3 -7 12 -14 22 -14 14 -2 14 -1 -1 3 -16 5 -16 6 2 14
19 7 18 8 -3 8 -15 1 -22 -4 -20 -11z"/>
<path d="M2910 2965 c0 -8 9 -15 20 -15 11 0 20 7 20 15 0 8 -9 15 -20 15 -11
0 -20 -7 -20 -15z"/>
<path d="M2973 2968 c2 -7 10 -13 17 -13 7 0 15 6 18 13 2 7 -5 12 -18 12 -13
0 -20 -5 -17 -12z"/>
<path d="M6035 2452 l0 -57 63 -3 c34 -2 62 -1 62 2 0 6 -109 110 -118 113 -4
2 -7 -23 -7 -55z"/>
<path d="M3090 2400 c-65 -5 -65 -5 -68 -37 l-3 -33 65 0 66 0 0 35 c0 19 5
35 10 35 6 0 8 -10 5 -22 -9 -39 7 -49 71 -46 56 3 59 4 62 31 2 16 -2 29 -10
31 -24 8 -132 11 -198 6z"/>
<path d="M3310 2402 c5 -2 7 -14 4 -26 -8 -32 13 -44 76 -43 54 2 55 2 58 35
2 17 7 32 11 32 4 0 6 -13 3 -30 -2 -16 0 -30 4 -31 16 -1 68 -2 100 0 28 1
32 5 36 34 l3 32 -152 0 c-84 0 -149 -1 -143 -3z"/>
<path d="M3633 2400 c-15 -6 -23 -18 -23 -34 0 -20 5 -24 38 -27 20 -2 51 -3
68 -1 28 3 32 7 36 38 l4 34 -51 -1 c-27 0 -60 -4 -72 -9z"/>
<path d="M3766 2395 c-18 -47 -9 -55 58 -55 35 0 73 -3 83 -6 11 -4 14 -3 7 3
-7 4 -11 22 -10 38 l1 30 -66 3 c-54 2 -68 0 -73 -13z"/>
<path d="M2418 2364 c3 -28 8 -33 35 -36 55 -6 101 5 105 25 7 34 -16 47 -82
45 l-62 -2 4 -32z"/>
<path d="M2577 2394 c-4 -4 -7 -20 -7 -36 0 -28 0 -28 65 -28 70 0 90 14 68
49 -11 17 -112 29 -126 15z"/>
<path d="M2727 2393 c-4 -3 -7 -19 -7 -35 0 -28 0 -28 65 -28 l65 0 0 35 0 35
-58 0 c-32 0 -62 -3 -65 -7z"/>
<path d="M2877 2394 c-4 -4 -7 -20 -7 -36 0 -28 0 -28 66 -28 l65 0 -3 33 c-3
31 -4 32 -58 35 -31 2 -59 0 -63 -4z"/>
<path d="M3273 2322 l-33 -3 0 -65 0 -64 70 0 70 0 0 64 0 64 -37 3 c-21 2
-53 3 -70 1z"/>
<path d="M3423 2323 l-33 -4 0 -65 0 -65 68 3 67 3 3 63 c3 60 2 62 -22 62
-13 0 -30 2 -38 3 -7 2 -28 2 -45 0z"/>
<path d="M3568 2323 c-27 -4 -28 -6 -28 -69 l0 -65 68 3 67 3 3 63 c3 59 2 62
-20 62 -13 0 -32 2 -43 4 -11 2 -32 1 -47 -1z"/>
<path d="M3723 2322 l-33 -3 0 -65 0 -65 110 3 c69 2 110 -1 110 -7 0 -6 -31
-10 -72 -10 l-73 0 -3 -63 -3 -64 76 4 c68 3 75 1 75 -16 0 -15 -3 -16 -15 -6
-10 9 -42 11 -105 8 -49 -3 -90 -1 -90 3 0 5 11 9 25 9 24 0 25 2 25 65 l0 66
-67 -3 -68 -3 -3 -62 c-3 -54 -1 -62 18 -68 11 -3 29 -3 40 0 11 4 20 2 20 -4
0 -6 -3 -10 -7 -10 -30 5 -34 -3 -31 -63 l3 -63 119 -3 c66 -1 123 1 128 6 14
14 18 295 5 311 -7 8 -7 12 -2 9 6 -4 10 13 10 43 0 27 -4 49 -10 49 -89 4
-156 4 -182 2z"/>
<path d="M1650 2310 c0 -6 7 -10 15 -10 8 0 15 2 15 4 0 2 -7 6 -15 10 -8 3
-15 1 -15 -4z"/>
<path d="M2344 2307 c-3 -8 -4 -39 -2 -68 l3 -54 68 -3 68 -3 -3 68 -3 68 -63
3 c-47 2 -64 -1 -68 -11z"/>
<path d="M2494 2306 c-3 -7 -4 -38 -2 -67 l3 -54 65 0 65 0 3 68 3 67 -66 0
c-46 0 -67 -4 -71 -14z"/>
<path d="M2644 2306 c-3 -7 -4 -38 -2 -67 l3 -54 65 0 65 0 3 68 3 67 -66 0
c-46 0 -67 -4 -71 -14z"/>
<path d="M2792 2253 l3 -68 40 1 c103 2 95 -4 95 69 l0 65 -70 0 -71 0 3 -67z"/>
<path d="M2940 2256 l0 -64 38 -3 c20 -2 52 -3 70 -1 l32 3 0 65 0 64 -70 0
-70 0 0 -64z"/>
<path d="M3090 2255 l0 -65 70 0 70 0 0 65 0 65 -70 0 -70 0 0 -65z"/>
<path d="M1670 2280 c-12 -7 -10 -9 7 -7 12 0 19 5 17 9 -6 10 -6 10 -24 -2z"/>
<path d="M1670 2249 c0 -5 5 -7 10 -4 6 3 10 8 10 11 0 2 -4 4 -10 4 -5 0 -10
-5 -10 -11z"/>
<path d="M1705 2250 c-3 -5 -1 -10 4 -10 6 0 11 5 11 10 0 6 -2 10 -4 10 -3 0
-8 -4 -11 -10z"/>
<path d="M1650 2196 c0 -14 37 -19 45 -7 2 5 -6 11 -20 13 -15 3 -25 1 -25 -6z"/>
<path d="M2753 2172 l-33 -3 0 -65 0 -65 68 3 67 3 0 60 0 60 -35 5 c-19 3
-50 4 -67 2z"/>
<path d="M2903 2173 l-33 -4 0 -65 0 -65 68 3 67 3 3 58 c2 40 -1 58 -10 61
-28 9 -64 12 -95 9z"/>
<path d="M3024 2171 c-2 -2 -4 -33 -4 -68 l0 -64 68 3 67 3 3 53 c4 72 -7 84
-75 80 -30 -2 -57 -5 -59 -7z"/>
<path d="M3177 2174 c-4 -4 -7 -36 -7 -71 l0 -63 65 0 66 0 -3 68 -3 67 -55 3
c-31 2 -59 0 -63 -4z"/>
<path d="M3320 2110 l0 -71 63 3 62 3 0 65 0 65 -62 3 -63 3 0 -71z"/>
<path d="M3472 2113 l3 -68 60 0 60 0 3 68 3 67 -66 0 -66 0 3 -67z"/>
<path d="M1750 2100 l0 -71 103 3 102 3 3 68 3 67 -106 0 -105 0 0 -70z"/>
<path d="M2420 2105 c0 -68 1 -69 50 -66 22 1 23 0 8 -9 -10 -6 -19 -23 -19
-38 -2 -27 -2 -27 -6 -2 -7 33 -19 40 -78 40 -27 0 -45 -4 -40 -8 7 -4 10 -89
10 -228 0 -183 -2 -218 -13 -205 -11 14 -11 13 -2 -6 6 -13 15 -23 19 -23 15
0 20 -41 10 -68 -7 -18 -7 -28 0 -30 6 -2 11 -12 11 -23 0 -10 7 -19 15 -19
18 0 20 -31 4 -47 -16 -16 13 -45 35 -37 23 9 19 42 -9 76 -25 29 -34 55 -16
43 6 -3 13 15 16 39 4 26 13 47 22 51 12 4 14 14 10 41 -4 23 -1 47 8 65 11
21 12 28 2 32 -6 2 9 4 36 3 43 -1 47 1 47 21 0 13 5 23 11 23 6 0 8 -7 5 -16
-3 -9 -6 -23 -6 -31 0 -11 -7 -14 -26 -10 -22 4 -25 2 -20 -16 3 -12 0 -27 -6
-34 -6 -7 -8 -24 -5 -39 3 -19 1 -24 -11 -19 -12 4 -12 2 -4 -8 7 -8 9 -17 5
-20 -3 -4 -1 -7 6 -7 7 0 9 -4 6 -10 -3 -5 -3 -15 1 -22 14 -22 43 91 33 126
-11 38 -11 36 1 36 6 0 10 -14 10 -30 l0 -30 288 2 287 3 3 67 3 68 -283 2
c-230 3 -282 6 -280 16 1 8 -5 16 -15 18 -21 6 -45 51 -32 60 5 3 7 9 4 14 -9
14 14 50 31 50 9 0 14 6 11 13 -2 6 -10 11 -16 10 -20 -5 -11 29 14 53 l25 23
0 -35 c0 -36 -15 -73 -34 -86 -7 -5 -7 -8 2 -8 9 0 11 -7 7 -20 -4 -12 -2 -20
5 -20 8 0 10 10 8 25 -3 14 -1 25 3 25 11 0 11 -19 0 -82 l-8 -48 54 0 53 0 0
65 0 65 -32 1 c-18 1 -36 1 -40 0 -12 -2 -10 17 2 24 6 3 10 1 10 -5 0 -7 23
-10 68 -8 l67 3 0 55 c0 30 -1 61 -3 68 -5 14 -118 17 -127 2 -7 -11 -35 -2
-35 11 0 5 29 9 65 9 l65 0 0 65 0 65 -69 0 -69 0 -4 -61 c-1 -33 0 -68 3 -77
4 -9 2 -23 -3 -29 -12 -15 -42 -18 -33 -4 3 5 1 12 -4 15 -13 9 -1 46 15 46
10 0 14 15 14 55 l0 55 -70 0 -70 0 0 -65z m177 -167 c-2 -13 -4 -3 -4 22 0
25 2 35 4 23 2 -13 2 -33 0 -45z m-192 -57 c-11 -4 -23 -19 -26 -32 -7 -24 -7
-24 -8 3 -1 14 -7 29 -13 31 -7 3 5 5 27 6 29 0 35 -3 20 -8z m120 -173 c6 -4
0 -8 -12 -8 -16 0 -21 4 -16 15 3 9 8 12 12 8 3 -4 11 -11 16 -15z"/>
<path d="M1652 2125 c0 -16 2 -22 5 -12 2 9 2 23 0 30 -3 6 -5 -1 -5 -18z"/>
<path d="M1704 2120 c0 -11 4 -20 8 -20 4 0 8 9 8 20 0 11 -4 20 -8 20 -4 0
-8 -9 -8 -20z"/>
<path d="M1677 2104 c-3 -4 -2 -15 4 -26 9 -16 7 -23 -10 -35 -12 -8 -21 -20
-21 -26 0 -7 7 -3 15 7 11 15 15 16 15 5 0 -23 36 -18 37 6 1 11 -1 14 -4 8
-9 -23 -24 -13 -17 11 3 13 1 27 -5 31 -6 3 -9 11 -6 16 7 10 2 12 -8 3z"/>
<path d="M1710 2074 c0 -8 5 -12 10 -9 6 4 8 11 5 16 -9 14 -15 11 -15 -7z"/>
<path d="M3405 2030 l-50 -5 0 -60 0 -60 68 -3 67 -3 0 64 c0 74 -2 76 -85 67z"/>
<path d="M3552 2033 l-53 -4 3 -62 3 -62 68 -3 67 -3 0 64 c0 50 -4 66 -16 71
-9 3 -16 5 -17 4 -1 -1 -26 -3 -55 -5z"/>
<path d="M2762 1963 l3 -68 45 -6 c25 -3 39 -7 33 -7 -9 -2 -13 -22 -13 -67
l0 -65 70 0 70 0 0 65 0 65 -32 2 c-18 0 -42 0 -53 -1 -18 -1 -18 0 -5 13 11
11 14 32 12 76 l-4 60 -64 0 -65 0 3 -67z"/>
<path d="M2910 1966 c0 -70 5 -76 58 -72 18 1 32 -1 32 -6 0 -4 -4 -8 -10 -8
-6 0 -10 -28 -10 -65 l0 -65 70 0 70 0 0 64 c0 71 -4 75 -73 77 -23 1 -34 3
-24 6 14 4 17 16 17 69 l0 64 -65 0 -65 0 0 -64z"/>
<path d="M3060 1966 l0 -64 36 -4 c20 -2 49 -2 65 0 29 4 29 5 29 68 l0 64
-65 0 -65 0 0 -64z"/>
<path d="M3204 2016 c-3 -7 -4 -35 -2 -62 3 -48 4 -49 38 -54 19 -3 50 -3 68
-1 l32 3 0 64 0 64 -65 0 c-46 0 -67 -4 -71 -14z"/>
<path d="M1665 1990 l-20 -7 20 -5 c16 -5 17 -6 3 -7 -19 -1 -26 -31 -8 -31 6
0 10 4 10 8 0 5 14 7 30 4 18 -3 30 0 30 7 0 6 -10 11 -22 11 -17 0 -19 3 -10
9 20 12 -6 21 -33 11z"/>
<path d="M1679 1923 c0 -11 -3 -13 -6 -5 -7 18 -22 14 -18 -5 2 -10 4 -26 4
-35 1 -12 9 -18 24 -17 16 1 18 2 5 6 -10 2 -18 11 -18 18 0 8 6 12 13 10 7
-3 13 4 13 20 1 14 -2 25 -7 25 -5 0 -9 -8 -10 -17z"/>
<path d="M1705 1910 c3 -5 11 -10 16 -10 6 0 7 5 4 10 -3 6 -11 10 -16 10 -6
0 -7 -4 -4 -10z"/>
<path d="M2713 1883 l-33 -4 0 -65 0 -64 70 0 70 0 0 65 c0 62 -1 65 -24 65
-13 0 -30 2 -38 3 -7 2 -28 2 -45 0z"/>
<path d="M3137 1884 c-4 -4 -7 -36 -7 -71 l0 -63 70 0 71 0 -3 68 -3 67 -60 3
c-34 2 -64 0 -68 -4z"/>
<path d="M3284 1877 c-3 -8 -4 -39 -2 -68 l3 -54 65 0 65 0 0 65 0 65 -63 3
c-47 2 -64 -1 -68 -11z"/>
<path d="M3434 1877 c-3 -8 -4 -39 -2 -68 l3 -54 65 0 65 0 0 65 0 65 -63 3
c-47 2 -64 -1 -68 -11z"/>
<path d="M3582 1823 l3 -68 148 0 c81 0 147 -3 147 -7 0 -4 -25 -8 -57 -10
l-56 -3 1 -42 c1 -92 -6 -84 70 -81 l67 3 3 53 c2 31 -2 60 -9 68 -9 11 -9 17
0 28 7 8 11 37 9 68 l-3 53 -163 3 -163 2 3 -67z"/>
<path d="M1663 1800 c-1 -30 1 -47 4 -37 2 9 12 17 21 18 14 0 13 2 -3 8 -19
8 -19 8 0 20 15 9 15 11 3 7 -12 -3 -18 2 -21 17 -2 12 -4 -3 -4 -33z"/>
<path d="M1685 1840 c-3 -5 -2 -10 4 -10 5 0 13 5 16 10 3 6 2 10 -4 10 -5 0
-13 -4 -16 -10z"/>
<path d="M1719 1828 c-1 -7 -1 -35 -1 -63 0 -37 -5 -53 -19 -63 -17 -12 -16
-42 2 -42 4 0 6 7 3 15 -4 8 -1 15 5 15 6 0 11 -10 11 -23 0 -18 -5 -23 -22
-22 -13 1 -24 8 -24 16 -1 8 -2 22 -3 32 0 10 -4 16 -8 14 -11 -7 -3 -107 9
-107 5 0 6 5 2 11 -6 11 12 29 29 29 4 0 12 -10 17 -22 6 -16 9 16 9 100 1 67
-1 122 -4 122 -3 0 -5 -6 -6 -12z"/>
<path d="M1691 1758 c0 -9 -4 -25 -7 -35 -5 -14 -4 -15 5 -7 7 7 11 22 8 35
-2 13 -5 16 -6 7z"/>
<path d="M1655 1730 c-3 -5 -1 -10 4 -10 6 0 11 5 11 10 0 6 -2 10 -4 10 -3 0
-8 -4 -11 -10z"/>
<path d="M3132 1673 l3 -68 85 0 85 0 0 65 0 65 -88 3 -88 3 3 -68z"/>
<path d="M3322 1673 l3 -68 56 -3 c70 -4 81 8 77 80 l-3 53 -68 3 -68 3 3 -68z"/>
<path d="M3472 1673 l3 -68 50 0 c79 -1 87 7 83 73 l-3 57 -68 3 -68 3 3 -68z"/>
<path d="M3620 1675 l0 -65 64 0 64 0 3 38 c2 20 3 49 1 65 -3 26 -5 27 -68
27 l-64 0 0 -65z"/>
<path d="M1690 1609 c0 -5 5 -7 10 -4 6 3 10 8 10 11 0 2 -4 4 -10 4 -5 0 -10
-5 -10 -11z"/>
<path d="M3113 1573 c42 -2 112 -2 155 0 42 1 7 3 -78 3 -85 0 -120 -2 -77 -3z"/>
<path d="M3360 1442 l5 -117 3 109 c1 60 -1 113 -5 117 -4 5 -6 -45 -3 -109z"/>
<path d="M2440 1474 c0 -6 7 -19 15 -30 8 -10 14 -14 14 -9 0 6 -6 19 -14 29
-8 11 -15 15 -15 10z"/>
<path d="M2480 1311 c0 -7 -5 -9 -12 -5 -7 5 -8 3 -3 -5 5 -9 10 -10 18 -2 6
6 8 14 4 18 -4 3 -7 1 -7 -6z"/>
<path d="M2470 1270 c0 -5 5 -10 11 -10 5 0 7 5 4 10 -3 6 -8 10 -11 10 -2 0
-4 -4 -4 -10z"/>
<path d="M1655 1030 c3 -5 8 -10 11 -10 2 0 4 5 4 10 0 6 -5 10 -11 10 -5 0
-7 -4 -4 -10z"/>
<path d="M1655 949 c-5 -8 -4 -10 3 -5 16 10 15 -6 0 -24 -7 -8 -4 -7 7 2 14
13 16 21 8 29 -8 8 -13 7 -18 -2z"/>
<path d="M3357 933 c-4 -3 -7 -11 -7 -17 0 -6 5 -5 12 2 6 6 9 14 7 17 -3 3
-9 2 -12 -2z"/>
<path d="M4820 2421 c-64 -14 -114 -44 -181 -110 -79 -79 -110 -149 -112 -251
-1 -98 25 -162 92 -231 78 -79 142 -102 266 -95 123 7 138 9 153 23 7 7 19 10
27 7 8 -4 15 -2 15 3 0 5 14 17 31 27 19 11 28 23 25 32 -3 8 -2 13 3 9 12 -7
44 38 73 101 17 39 22 68 22 139 0 79 -3 97 -29 149 -35 73 -103 141 -172 173
-55 26 -155 37 -213 24z m-226 -497 c29 -51 31 -58 16 -49 -10 6 -50 78 -50
90 0 14 10 1 34 -41z"/>
<path d="M4996 1593 c4 -16 10 -38 13 -51 4 -13 3 -75 -2 -139 -5 -77 -4 -120
3 -128 6 -7 8 -19 5 -27 -3 -8 4 -23 15 -33 21 -19 21 -19 11 9 -8 19 -8 33
-1 47 6 10 7 19 2 19 -5 0 -9 11 -9 24 0 20 7 27 36 34 l36 10 -39 1 c-38 1
-39 2 -22 20 12 13 13 20 6 23 -7 2 -13 21 -15 43 -4 68 -27 175 -36 175 -5 0
-6 -12 -3 -27z"/>
<path d="M4970 1540 c0 -5 5 -10 11 -10 5 0 7 5 4 10 -3 6 -8 10 -11 10 -2 0
-4 -4 -4 -10z"/>
<path d="M5160 1231 c-6 -12 -9 -25 -6 -29 3 -4 0 -14 -6 -22 -8 -13 -9 -13
-5 1 3 9 -1 16 -9 16 -7 0 -11 -4 -9 -8 7 -11 -6 -40 -16 -34 -7 5 -26 -20
-27 -35 -1 -18 -23 -60 -32 -60 -5 0 -7 -13 -3 -32 4 -23 3 -29 -6 -24 -6 4
-18 2 -26 -4 -8 -7 -22 -10 -30 -6 -17 6 -21 46 -3 46 7 0 6 6 -4 18 -9 9 -13
23 -11 30 3 7 -3 19 -13 27 -17 12 -20 11 -26 -17 -4 -22 0 -41 13 -65 16 -28
17 -38 8 -49 -7 -8 -9 -17 -6 -21 4 -3 1 -13 -6 -21 -9 -12 -9 -16 1 -19 6 -3
12 -11 12 -18 0 -7 -6 -16 -12 -18 -10 -4 -10 -6 0 -6 7 -1 15 6 18 14 4 8 12
15 20 15 7 0 20 9 28 21 8 12 19 18 25 14 7 -4 11 3 11 17 0 18 2 20 10 8 5
-8 10 -10 10 -5 0 6 4 4 9 -3 6 -9 16 4 35 44 15 31 25 59 22 62 -3 2 4 16 14
30 11 14 18 27 15 30 -3 3 -12 -3 -20 -14 -14 -17 -14 -17 -3 9 7 18 17 26 26
22 10 -4 13 0 9 14 -2 11 1 22 8 25 7 2 11 16 9 31 -3 36 -10 41 -24 16z m-85
-216 c0 -14 -3 -25 -7 -25 -5 0 -8 11 -8 25 0 14 3 25 8 25 4 0 7 -11 7 -25z
m29 10 c-4 -8 -8 -15 -10 -15 -2 0 -4 7 -4 15 0 8 4 15 10 15 5 0 7 -7 4 -15z"/>
<path d="M5010 1030 c19 -13 30 -13 30 0 0 6 -10 10 -22 10 -19 0 -20 -2 -8
-10z"/>
<path d="M5050 943 c0 -4 5 -15 10 -23 8 -13 10 -13 10 2 0 9 -4 20 -10 23 -5
3 -10 3 -10 -2z"/>
<path d="M4981 538 c-1 -27 16 -84 23 -77 3 2 -2 27 -9 54 -10 35 -14 42 -14
23z"/>
<path d="M4990 423 c0 -12 -6 -24 -12 -26 -7 -3 -4 -6 8 -6 15 -1 20 5 19 19
-2 27 -15 38 -15 13z"/>
<path d="M6123 2169 c-35 -22 -73 -91 -73 -130 1 -42 36 -105 71 -127 50 -30
96 -34 145 -13 111 50 125 200 24 269 -44 29 -122 30 -167 1z"/>
<path d="M2270 1080 c0 -5 7 -10 15 -10 8 0 15 5 15 10 0 6 -7 10 -15 10 -8 0
-15 -4 -15 -10z"/>
<path d="M6665 2534 c-6 -1 -27 -5 -47 -9 -42 -7 -49 -20 -18 -30 22 -7 19
-20 -10 -35 -16 -9 -18 -7 -14 14 7 41 -12 38 -55 -9 -35 -38 -41 -51 -41 -87
0 -128 160 -201 313 -142 12 4 18 -1 23 -20 22 -89 88 80 70 179 -8 41 -46 90
-88 111 -29 15 -114 33 -133 28z m9 -65 c-24 -27 -31 -24 -26 11 4 26 7 28 24
19 19 -10 19 -12 2 -30z m79 27 c13 -10 14 -15 5 -23 -33 -25 -38 -24 -38 6 0
34 6 37 33 17z m-134 -105 c13 -24 -8 -55 -34 -50 -28 6 -42 34 -26 53 18 22
48 20 60 -3z m96 -1 c13 -41 -43 -70 -64 -33 -13 25 5 53 34 53 15 0 26 -7 30
-20z m94 1 c13 -24 -8 -55 -34 -50 -23 5 -40 32 -32 53 9 22 54 20 66 -3z"/>
<path d="M6980 2522 c-72 -24 -114 -52 -101 -65 7 -7 17 -5 31 8 17 15 31 17
95 12 42 -3 83 -11 91 -17 22 -19 17 -47 -12 -67 -53 -37 -63 -50 -58 -82 7
-41 -20 -55 -65 -34 -18 9 -35 22 -38 30 -8 20 -23 16 -23 -7 0 -13 12 -25 35
-34 48 -21 58 -61 22 -92 -15 -13 -22 -26 -17 -29 18 -11 11 -40 -12 -50 -13
-6 -25 -23 -29 -41 -9 -46 -17 -54 -54 -54 -19 0 -37 -5 -41 -12 -11 -18 34
-48 73 -48 26 0 36 -5 40 -20 4 -15 9 -17 23 -10 29 15 44 12 76 -15 22 -20
39 -25 71 -23 48 2 80 -17 62 -38 -6 -7 -16 -11 -23 -8 -7 3 -19 -2 -26 -11
-37 -44 87 -83 160 -50 38 17 40 21 40 61 0 24 -4 45 -9 48 -4 3 -14 27 -21
53 -8 27 -23 61 -34 76 -13 17 -21 44 -21 68 0 31 -3 39 -17 39 -11 0 -25 14
-35 34 -15 32 -15 37 1 60 9 14 29 28 44 32 52 11 55 13 43 28 -7 8 -25 19
-41 26 -37 16 -44 38 -25 83 27 66 98 77 93 14 -2 -18 2 -32 7 -32 9 0 10 40
2 110 -3 24 -12 33 -47 48 -64 28 -190 32 -260 9z"/>
<path d="M6912 2448 c-15 -15 -16 -45 -2 -53 6 -3 10 -18 10 -31 0 -28 49 -84
74 -84 12 0 16 10 16 40 0 40 2 43 53 81 53 40 29 59 -78 59 -34 0 -66 -5 -73
-12z"/>
<path d="M7217 2393 c-8 -10 -18 -30 -22 -45 -6 -23 -2 -30 33 -52 22 -14 44
-31 48 -37 10 -17 -24 -39 -58 -39 -36 0 -56 -36 -39 -69 17 -31 37 -26 58 17
10 20 28 41 41 47 19 8 22 17 22 62 0 46 -2 52 -22 55 -20 3 -23 8 -21 41 3
41 -13 49 -40 20z"/>
<path d="M6881 2225 c-6 -19 -25 -44 -42 -55 l-29 -21 0 23 c0 41 -10 47 -62
35 -40 -10 -48 -16 -54 -40 -7 -32 3 -113 17 -138 5 -9 22 -22 38 -27 22 -8
30 -18 33 -39 2 -19 12 -32 31 -41 27 -13 36 -36 17 -47 -15 -9 -2 -25 20 -25
10 0 27 -11 37 -25 19 -27 142 -75 190 -75 21 0 23 3 14 14 -7 8 -11 27 -9 43
2 22 9 29 33 33 20 4 26 8 17 14 -7 4 -30 5 -51 1 -34 -6 -43 -2 -74 25 -30
26 -40 29 -56 21 -30 -17 -52 -13 -58 9 -4 14 -14 20 -32 20 -37 0 -71 26 -71
55 0 24 8 29 65 37 13 2 22 15 28 42 6 24 16 40 28 43 21 6 25 18 9 28 -19 12
-11 44 13 47 31 4 35 42 5 62 -33 23 -43 20 -57 -19z"/>
<path d="M7250 2160 c-11 -21 -20 -41 -20 -43 0 -2 16 1 35 7 31 10 35 15 35
43 0 46 -25 43 -50 -7z"/>
<path d="M7248 2103 c-21 -5 -23 -29 -7 -70 l11 -28 14 50 c7 28 13 51 14 53
0 2 -9 1 -32 -5z"/>
<path d="M7286 2074 c-9 -23 -6 -136 4 -159 6 -13 9 14 9 78 1 97 -1 111 -13
81z"/>
<path d="M6745 1941 c16 -28 36 -58 45 -66 16 -14 18 -14 23 5 4 16 -1 24 -19
32 -14 7 -28 24 -32 42 -5 18 -16 32 -26 34 -16 3 -15 -3 9 -47z"/>
<path d="M6841 1824 c13 -16 29 -19 29 -5 0 5 -9 11 -21 14 -16 4 -18 3 -8 -9z"/>
<path d="M6945 1760 c3 -5 14 -10 23 -10 15 0 15 2 2 10 -20 13 -33 13 -25 0z"/>
<path d="M6998 1743 c7 -3 16 -2 19 1 4 3 -2 6 -13 5 -11 0 -14 -3 -6 -6z"/>
</g>
</svg>
